<?xml version="1.0" encoding="UTF-8"?>
<!DOCTYPE svg PUBLIC "-//W3C//DTD SVG 1.1//EN" "http://www.w3.org/Graphics/SVG/1.1/DTD/svg11.dtd">
<!-- Creator: CorelDRAW (Versão de avaliação) -->
<svg xmlns="http://www.w3.org/2000/svg" xml:space="preserve" width="5.208in" height="1.77928in" version="1.1" style="shape-rendering:geometricPrecision; text-rendering:geometricPrecision; image-rendering:optimizeQuality; fill-rule:evenodd; clip-rule:evenodd"
viewBox="0 0 4547.3 1553.55"
 xmlns:xlink="http://www.w3.org/1999/xlink"
 xmlns:xodm="http://www.corel.com/coreldraw/odm/2003">
 <defs>
  <style type="text/css">
   <![CDATA[
    .fil0 {fill:black;fill-rule:nonzero}
   ]]>
  </style>
 </defs>
 <g id="Camada_x0020_1">
  <metadata id="CorelCorpID_0Corel-Layer"/>
  <g id="_105553147181248">
   <path class="fil0" d="M1694.99 298.55l-84.6 0c-6.68,0 -12.34,4.92 -13.28,11.55l-129.78 928.17c-1.13,8.06 5.13,15.27 13.28,15.27l59.78 0c6.86,0 12.61,-5.14 13.32,-11.97 0.58,-5.6 19.31,-160.28 19.31,-160.28l162.37 0.4c0,0 18.67,117.74 23.63,160.01 0.8,6.75 6.52,11.84 13.31,11.84l58.56 0c8.15,0 14.42,-7.2 13.28,-15.28l-135.9 -928.17c-0.94,-6.61 -6.6,-11.53 -13.28,-11.53zm32.13 706.91l-148.53 0 71.4 -571.32 2.87 -22.08 2.86 22.08 71.4 571.32z"/>
   <path class="fil0" d="M2199.29 485.69c-7.4,0 -13.41,-6 -13.41,-13.4l0 -58.5c0,-15.12 -12.25,-27.37 -27.36,-27.37l-113.84 0c-14.54,0 -26.31,11.77 -26.31,26.3l0 709.02c0,13.38 3.81,24.34 11.45,32.94 7.63,8.59 19.56,12.88 35.8,12.88l73.02 0c18.12,0 30.53,-4.29 37.23,-12.88 6.67,-8.6 10.01,-18.13 10.01,-28.64l0 -229.49 -86.73 0c-7.4,0 -13.4,-6 -13.4,-13.4l0 -61.06c0,-7.4 6,-13.4 13.4,-13.4l146.66 0c15.14,0 27.41,12.28 27.41,27.42l0 294.74c0,42.97 -10.52,74.46 -31.5,94.51 -21,20.05 -52.03,30.08 -93.06,30.08l-93.07 0c-83.04,0 -124.57,-39.6 -124.57,-118.84l0 -715.33c0,-42.97 9.79,-74.22 29.36,-93.79 19.55,-19.56 51.29,-29.36 95.21,-29.36l93.07 0c41.02,0 72.05,9.32 93.06,27.93 20.99,18.61 31.5,48.93 31.5,90.92l0 55.33c0,7.4 -6,13.4 -13.4,13.4l-60.54 0z"/>
   <path class="fil0" d="M2729.94 700.17l0 13.13c0,32.27 -26.14,58.44 -58.41,58.47l-0.29 0c19.09,0 33.64,6.68 43.67,20.04 10.03,13.38 15.03,27.2 15.03,41.52l0 406.8c0,7.39 -6,13.4 -13.4,13.4l-61.97 0c-7.41,0 -13.41,-6.01 -13.41,-13.4l0 -401.08c0,-15.03 -12.18,-27.2 -27.2,-27.2l-137.45 0 0 428.27c0,7.39 -6,13.4 -13.41,13.4l-61.96 0c-7.4,0 -13.4,-6.01 -13.4,-13.4l0 -928.61c0,-7.41 6,-13.41 13.4,-13.41l228.58 0c33.4,0 58.45,10.99 75.16,32.94 16.7,21.96 25.06,45.82 25.06,71.6l0 297.52zm-128.86 37.23c22.14,0 40.09,-17.95 40.09,-40.09l0 -275.18 0 -13.58c0,-15.44 -12.5,-27.94 -27.94,-27.94l-136.71 0 0 356.8 124.56 0z"/>
   <path class="fil0" d="M3063.52 298.11c41.02,0 72.05,9.3 93.07,27.92 20.98,18.62 31.49,48.93 31.49,90.93l0 715.33c0,42.97 -10.51,74.24 -31.49,93.79 -21.01,19.58 -52.05,29.36 -93.07,29.36l-93.07 0c-41.04,0 -72.31,-9.31 -93.78,-27.93 -21.47,-18.61 -32.22,-48.91 -32.22,-90.92l0 -715.34c0,-42.96 10.75,-74.21 32.22,-93.78 21.47,-19.56 52.74,-29.36 93.78,-29.36l93.07 0zm35.78 128.3c0,-13.35 -3.56,-24.34 -10.73,-32.94 -7.15,-8.59 -18.85,-12.88 -35.08,-12.88l-74.45 0c-15.28,0 -26.73,5.25 -34.35,15.75 -7.65,10.52 -11.46,23.39 -11.46,38.66l0 682.66c0,13.38 3.81,24.34 11.46,32.92 7.63,8.6 19.07,12.89 34.35,12.89l74.45 0c15.25,0 26.71,-5.24 34.37,-15.75 7.63,-10.49 11.45,-23.38 11.45,-38.66l0 -682.66z"/>
   <path class="fil0" d="M3529.32 1135.15c0,42.96 -10.51,73.75 -31.51,92.36 -21,18.61 -52.51,27.92 -94.5,27.92l-118.44 0c-6.88,0 -12.45,-5.58 -12.45,-12.45l0 -62.32c0,-6.89 5.58,-12.47 12.45,-12.47l56.27 0 52.15 0c26.1,0 47.25,-21.15 47.25,-47.25l0 -809.42c0,-7.4 6,-13.4 13.41,-13.4l61.97 0c7.4,0 13.4,6 13.4,13.4l0 823.63z"/>
   <path class="fil0" d="M3907.29 1241.95c0,7.43 -5.05,13.08 -12.49,13.05l-238.46 0c-6.9,0 -12.51,-5.59 -12.51,-12.51l0 -931.49c0,-7.12 5.78,-12.89 12.89,-12.89l237.15 0c7.41,0 13.41,6 13.41,13.41l0 60.85c0,7.41 -6,13.41 -13.41,13.41l-162.7 0 0 343.01 145.53 0c7.4,0 13.4,6 13.4,13.41l0 47.64c0,7.4 -6,13.4 -13.4,13.4l-145.53 0 0 364.85 162.7 0c7.41,0 13.41,6 13.41,13.41l0 60.43z"/>
   <path class="fil0" d="M4423.72 298.11c-6.48,0 -12.12,4.4 -13.71,10.68l-124.74 496.2 -0.72 -2.8 -0.7 2.8 -124.8 -496.41c-1.55,-6.16 -7.09,-10.48 -13.45,-10.48l-109.91 0c-7.66,0 -13.87,6.21 -13.87,13.86l0 930.24c0,7.06 5.73,12.78 12.78,12.78l64.66 0c7.06,0 12.77,-5.72 12.77,-12.78l0 -712.14c0,-3.81 0.25,-41.39 0.72,-42.36 0.5,-0.93 19.83,106.57 20.78,109.43 0,0 84.38,323.21 100.37,384.99 1.6,6.18 7.17,10.43 13.56,10.43l37.1 0 37.12 0c6.39,0 11.94,-4.25 13.54,-10.43 15.99,-61.79 100.37,-384.99 100.37,-384.99 0.95,-2.86 20.3,-110.37 20.78,-109.43 0.47,0.97 0.72,38.55 0.72,42.36l0 712.14c0,7.06 5.72,12.78 12.77,12.78l64.66 0c7.06,0 12.78,-5.72 12.78,-12.78l0 -929.98c0,-7.81 -6.33,-14.13 -14.13,-14.13l-109.45 0z"/>
   <path class="fil0" d="M1219.63 921.41l0 -851.54 0 -69.88 -76.79 0 -209.93 0 -76.8 0 -207.76 0 -76.79 0c-602.79,0 -571.28,632.14 -571.28,632.14l0 851.52 0 69.89 76.8 0 209.93 0 76.79 0 207.76 0 76.79 0c602.78,0 571.28,-632.14 571.28,-632.14zm-363.52 -851.54l0 851.54c3.11,198.34 -207.76,193.33 -207.76,193.33l0 -1044.87 207.76 0zm-492.3 562.27c-3.11,-198.35 207.76,-193.34 207.76,-193.34l0 675.17 -207.76 0 0 -481.82zm-286.72 851.52l0 -851.52c8.99,-585.08 494.48,-556.11 494.48,-556.11l0 284.56c-311,8.69 -284.55,271.55 -284.55,271.55l0 851.52 -209.93 0zm286.72 -290.72l207.76 0 0 290.72 -207.76 0 0 -290.72zm284.55 284.57l0 -284.57c310.99,-8.68 284.55,-271.54 284.55,-271.54l0 -851.54 209.93 0 0 851.54c-9,585.06 -494.48,556.1 -494.48,556.1z"/>
  </g>
 </g>
</svg>
