<?xml version="1.0" encoding="UTF-8"?>
<!DOCTYPE svg PUBLIC "-//W3C//DTD SVG 1.1//EN" "http://www.w3.org/Graphics/SVG/1.1/DTD/svg11.dtd">
<!-- Creator: CorelDRAW (Versão de avaliação) -->
<svg xmlns="http://www.w3.org/2000/svg" xml:space="preserve" width="6.40393in" height="2.18771in" version="1.1" style="shape-rendering:geometricPrecision; text-rendering:geometricPrecision; image-rendering:optimizeQuality; fill-rule:evenodd; clip-rule:evenodd"
viewBox="0 0 5395.5 1843.21"
 xmlns:xlink="http://www.w3.org/1999/xlink"
 xmlns:xodm="http://www.corel.com/coreldraw/odm/2003">
 <defs>
  <style type="text/css">
   <![CDATA[
    .fil0 {fill:#000101;fill-rule:nonzero}
    .fil1 {fill:#F58020;fill-rule:nonzero}
   ]]>
  </style>
 </defs>
 <g id="Camada_x0020_1">
  <metadata id="CorelCorpID_0Corel-Layer"/>
  <path class="fil0" d="M2011.15 354.21l-100.38 0c-7.93,0 -14.65,5.84 -15.76,13.7l-153.97 1101.24c-1.34,9.57 6.09,18.12 15.75,18.12l70.93 0c8.15,0 14.97,-6.11 15.82,-14.21 0.69,-6.64 22.91,-190.16 22.91,-190.16l192.65 0.47c0,0 22.14,139.71 28.03,189.85 0.94,8.01 7.73,14.05 15.8,14.05l69.48 0c9.67,0 17.1,-8.56 15.75,-18.13l-161.25 -1101.24c-1.11,-7.84 -7.82,-13.68 -15.75,-13.68zm38.13 838.72l-176.23 0 84.72 -677.85 3.4 -26.2 3.4 26.2 84.71 677.85z"/>
  <path class="fil0" d="M2609.52 576.25c-8.79,0 -15.9,-7.13 -15.9,-15.91l0 -69.41c0,-17.94 -14.54,-32.47 -32.47,-32.47l-135.07 0c-17.24,0 -31.22,13.97 -31.22,31.21l0 841.22c0,15.87 4.51,28.88 13.58,39.07 9.06,10.19 23.21,15.29 42.48,15.29l86.64 0c21.5,0 36.24,-5.09 44.17,-15.29 7.9,-10.19 11.89,-21.5 11.89,-33.98l0 -272.27 -102.91 0c-8.79,0 -15.91,-7.13 -15.91,-15.91l0 -72.43c0,-8.78 7.12,-15.91 15.91,-15.91l174.01 0c17.97,0 32.53,14.57 32.53,32.53l0 349.71c0,50.97 -12.48,88.34 -37.37,112.13 -24.93,23.79 -61.75,35.68 -110.43,35.68l-110.43 0c-98.53,0 -147.79,-46.99 -147.79,-141.01l0 -848.7c0,-50.97 11.6,-88.05 34.83,-111.28 23.2,-23.2 60.87,-34.83 112.97,-34.83l110.43 0c48.68,0 85.5,11.05 110.43,33.13 24.89,22.08 37.37,58.05 37.37,107.87l0 65.64c0,8.78 -7.13,15.91 -15.91,15.91l-71.82 0z"/>
  <path class="fil0" d="M3239.16 830.72l0 15.58c0,38.28 -31.02,69.33 -69.31,69.35l-0.34 0.01c22.64,0 39.92,7.93 51.81,23.78 11.89,15.87 17.84,32.28 17.84,49.26l0 482.65c0,8.78 -7.12,15.9 -15.9,15.9l-73.52 0c-8.78,0 -15.91,-7.12 -15.91,-15.9l0 -475.85c0,-17.83 -14.45,-32.28 -32.28,-32.28l-163.09 0 0 508.13c0,8.78 -7.13,15.9 -15.91,15.9l-73.52 0c-8.78,0 -15.9,-7.12 -15.9,-15.9l0 -1101.75c0,-8.79 7.12,-15.91 15.9,-15.91l271.2 0c39.63,0 69.36,13.03 89.19,39.07 19.8,26.07 29.73,54.37 29.73,84.95l0 353zm-152.9 44.17c26.27,0 47.57,-21.3 47.57,-47.57l0 -326.49 0 -16.12c0,-18.31 -14.84,-33.15 -33.15,-33.15l-162.22 0 0 423.33 147.8 0z"/>
  <path class="fil0" d="M3634.97 353.7c48.68,0 85.49,11.04 110.42,33.12 24.9,22.08 37.38,58.05 37.38,107.88l0 848.7c0,50.97 -12.48,88.08 -37.38,111.28 -24.93,23.22 -61.74,34.83 -110.42,34.83l-110.43 0c-48.71,0 -85.8,-11.05 -111.27,-33.13 -25.48,-22.08 -38.23,-58.03 -38.23,-107.88l0 -848.71c0,-50.97 12.74,-88.05 38.23,-111.27 25.47,-23.2 62.56,-34.83 111.27,-34.83l110.43 0zm42.46 152.23c0,-15.85 -4.24,-28.88 -12.73,-39.07 -8.5,-10.2 -22.37,-15.29 -41.62,-15.29l-88.34 0c-18.13,0 -31.72,6.23 -40.77,18.68 -9.08,12.48 -13.59,27.76 -13.59,45.87l0 809.95c0,15.87 4.51,28.88 13.59,39.07 9.05,10.19 22.64,15.29 40.77,15.29l88.34 0c18.1,0 31.69,-6.21 40.77,-18.69 9.05,-12.45 13.58,-27.73 13.58,-45.86l0 -809.95z"/>
  <path class="fil0" d="M4187.64 1346.81c0,50.97 -12.47,87.49 -37.37,109.58 -24.92,22.08 -62.3,33.12 -112.13,33.12l-140.53 0c-8.16,0 -14.78,-6.62 -14.78,-14.78l0 -73.94c0,-8.17 6.62,-14.78 14.78,-14.78l66.77 0 61.87 0c30.97,0 56.07,-25.1 56.07,-56.06l0 -960.34c0,-8.78 7.12,-15.9 15.9,-15.9l73.52 0c8.78,0 15.9,7.12 15.9,15.9l0 977.2z"/>
  <path class="fil0" d="M4636.12 1473.52c0,8.82 -6,15.53 -14.81,15.48l-282.95 0c-8.19,0 -14.83,-6.63 -14.83,-14.83l0 -1105.18c0,-8.44 6.85,-15.28 15.29,-15.28l281.4 0c8.78,0 15.9,7.12 15.9,15.91l0 72.21c0,8.79 -7.12,15.9 -15.9,15.9l-193.05 0 0 406.98 172.66 0c8.79,0 15.91,7.12 15.91,15.9l0 56.53c0,8.78 -7.12,15.9 -15.91,15.9l-172.66 0 0 432.88 193.05 0c8.78,0 15.9,7.13 15.9,15.91l0 71.7z"/>
  <path class="fil0" d="M5248.88 353.7c-7.68,0 -14.38,5.22 -16.26,12.67l-148.01 588.72 -0.85 -3.33 -0.84 3.33 -148.08 -588.96c-1.84,-7.31 -8.41,-12.44 -15.95,-12.44l-130.42 0c-9.08,0 -16.45,7.37 -16.45,16.45l0 1103.69c0,8.37 6.78,15.16 15.16,15.16l76.72 0c8.37,0 15.16,-6.79 15.16,-15.16l0 -844.92c0,-4.52 0.3,-49.12 0.85,-50.26 0.58,-1.11 23.53,126.44 24.65,129.83 0,0 100.12,383.48 119.1,456.78 1.9,7.33 8.5,12.37 16.08,12.37l44.03 0 44.04 0c7.58,0 14.17,-5.04 16.07,-12.37 18.98,-73.3 119.1,-456.78 119.1,-456.78 1.12,-3.4 24.07,-130.95 24.65,-129.83 0.56,1.14 0.85,45.74 0.85,50.26l0 844.92c0,8.37 6.79,15.16 15.16,15.16l76.72 0c8.37,0 15.16,-6.79 15.16,-15.16l0 -1103.38c0,-9.26 -7.5,-16.76 -16.75,-16.76l-129.87 0z"/>
  <path class="fil1" d="M1447.12 1093.22l0 -1010.31 0 -82.91 -91.13 0 -249.08 0 -91.12 0 -246.51 0 -91.12 0c-715.22,0 -677.83,750 -677.83,750l0 1010.3 0 82.91 91.12 0 249.08 0 91.13 0 246.51 0 91.12 0c715.22,0 677.83,-750 677.83,-750zm-431.33 -1010.31l0 1010.31c3.69,235.32 -246.51,229.38 -246.51,229.38l0 -1239.69 246.51 0zm-584.14 667.09c-3.69,-235.32 246.51,-229.38 246.51,-229.38l0 801.05 -246.51 0 0 -571.67zm-340.21 1010.3l0 -1010.3c10.67,-694.16 586.72,-659.8 586.72,-659.8l0 337.63c-369,10.31 -337.64,322.17 -337.64,322.17l0 1010.3 -249.08 0zm340.21 -344.92l246.51 0 0 344.92 -246.51 0 0 -344.92zm337.63 337.63l0 -337.63c369,-10.31 337.63,-322.16 337.63,-322.16l0 -1010.31 249.08 0 0 1010.31c-10.66,694.15 -586.71,659.79 -586.71,659.79z"/>
 </g>
</svg>
